<?xml version="1.0" standalone="no"?>
<!DOCTYPE svg PUBLIC "-//W3C//DTD SVG 20010904//EN"
 "http://www.w3.org/TR/2001/REC-SVG-20010904/DTD/svg10.dtd">
<svg version="1.0" xmlns="http://www.w3.org/2000/svg"
 width="256.000000pt" height="256.000000pt" viewBox="0 0 256.000000 256.000000"
 preserveAspectRatio="xMidYMid meet">
<metadata>
Created by potrace 1.11, written by Peter Selinger 2001-2013
</metadata>
<g transform="translate(0.000000,256.000000) scale(0.100000,-0.100000)"
fill="#000000" stroke="none">
<path d="M0 1280 l0 -1280 1280 0 1280 0 0 1280 0 1280 -1280 0 -1280 0 0
-1280z m1130 1174 c0 -27 -5 -37 -20 -41 -10 -3 -22 -13 -25 -24 -4 -12 -18
-19 -43 -21 -36 -3 -37 -4 -40 -45 l-3 -43 131 0 c123 0 132 1 137 20 3 11 11
20 18 20 31 0 35 85 5 93 -15 4 -20 14 -20 41 l0 36 605 0 605 0 0 -690 c0
-670 -1 -690 -19 -690 -20 0 -35 -25 -25 -41 3 -5 14 -9 25 -9 16 0 19 -7 19
-40 l0 -40 -60 0 c-44 0 -61 -4 -68 -16 -7 -13 -31 -18 -107 -22 -84 -4 -98
-7 -102 -23 -5 -16 -15 -19 -73 -19 -76 0 -100 -6 -100 -25 0 -19 -24 -25 -95
-25 -54 0 -66 -3 -75 -20 -10 -18 -21 -20 -106 -20 -87 0 -96 -2 -101 -20 -5
-18 -14 -20 -105 -20 -91 0 -100 -2 -105 -20 -5 -18 -14 -20 -73 -20 -77 0
-100 -6 -100 -26 0 -23 -57 -18 -65 6 -8 26 -41 26 -57 0 -10 -16 -24 -20 -70
-20 l-58 0 0 -35 c0 -24 -6 -37 -20 -45 -19 -10 -20 -21 -20 -169 0 -172 -6
-221 -25 -221 -14 0 -25 -43 -25 -96 l0 -34 -207 0 c-115 0 -213 4 -219 8 -6
4 -13 15 -17 24 -5 14 -18 18 -59 18 -42 0 -56 4 -66 20 -10 16 -23 20 -66 20
-45 0 -54 3 -59 20 -4 16 -14 20 -51 20 l-46 0 0 270 0 270 25 0 c14 0 25 5
25 10 0 6 -11 10 -25 10 -22 0 -25 4 -25 35 0 25 4 35 16 35 9 0 18 -9 21 -20
3 -13 19 -24 43 -30 21 -6 43 -16 49 -24 6 -8 36 -17 65 -20 42 -6 55 -12 59
-27 4 -14 14 -19 37 -19 19 0 38 -7 45 -16 6 -9 36 -20 66 -25 29 -5 55 -13
57 -19 2 -5 23 -10 47 -10 34 0 47 5 55 20 8 15 21 20 50 20 l40 0 0 65 0 65
55 0 c44 0 56 4 65 20 6 11 16 20 23 20 7 0 18 9 25 20 8 13 23 20 43 20 22 0
32 5 36 20 3 11 12 20 20 20 8 0 17 9 20 20 3 10 14 22 24 25 14 5 19 16 19
41 0 22 6 37 15 40 8 4 15 17 15 30 0 15 -6 24 -15 24 -22 0 -18 18 5 25 14 4
22 19 26 46 7 42 6 42 91 39 43 -1 54 2 65 19 7 12 21 21 31 21 11 0 21 9 24
20 3 11 11 20 18 20 20 0 42 33 48 74 3 21 9 41 11 44 3 3 27 -11 52 -32 26
-20 57 -36 68 -36 28 0 43 -11 47 -35 3 -16 13 -21 47 -23 39 -3 41 -5 31 -24
-9 -17 -6 -25 17 -49 38 -40 69 -38 84 5 6 18 20 42 31 52 21 19 32 14 53 -28
17 -34 53 -36 66 -4 12 33 24 33 38 1 18 -39 54 -33 91 14 18 22 61 56 96 76
l65 36 0 72 c1 40 5 92 11 117 6 25 10 90 9 145 -1 88 -4 105 -26 137 -13 21
-42 50 -64 64 -29 19 -43 37 -50 65 -9 32 -15 39 -36 39 -19 0 -28 -8 -40 -36
-18 -42 -35 -40 -46 5 -5 17 -15 34 -23 37 -21 8 -53 -13 -70 -46 -14 -26 -21
-30 -60 -30 -47 0 -51 -3 -92 -80 -15 -30 -23 -35 -48 -32 -16 2 -43 10 -60
18 -45 24 -77 7 -108 -57 -22 -47 -27 -52 -60 -54 -20 -1 -34 1 -32 5 3 4 -13
10 -35 14 -22 3 -40 10 -40 15 0 5 -14 13 -32 16 -18 4 -51 26 -74 49 -92 92
-123 116 -152 122 -17 3 -33 12 -36 20 -3 8 -20 14 -39 14 -19 0 -55 11 -81
25 -26 14 -53 25 -60 25 -7 0 -21 9 -31 20 -10 11 -28 20 -40 20 -12 0 -30 9
-40 20 -10 11 -24 20 -31 20 -8 0 -19 -9 -26 -20 -19 -30 -28 -24 -28 16 0 27
-5 37 -20 41 -16 4 -20 14 -20 44 0 34 3 39 23 39 14 0 37 -17 62 -45 31 -35
46 -45 71 -45 23 0 33 -5 37 -20 4 -15 14 -20 40 -20 26 0 36 -5 40 -20 4 -14
14 -20 36 -20 18 0 38 -8 49 -21 26 -27 95 -24 100 4 3 12 -4 20 -17 24 -12 3
-21 12 -21 20 0 8 -9 17 -19 20 -11 3 -21 13 -24 24 -4 14 -14 19 -40 19 -27
0 -37 5 -42 20 -3 11 -13 20 -22 20 -8 0 -17 9 -20 19 -4 14 -15 21 -41 23
-26 2 -38 8 -40 21 -3 15 6 17 72 17 66 0 75 2 81 20 4 11 15 20 26 20 24 0
37 29 18 41 -8 5 -60 9 -116 9 l-103 0 0 -42 0 -43 -43 48 c-24 26 -49 47 -54
47 -6 0 -13 7 -17 15 -3 8 -12 15 -21 15 -8 0 -15 9 -15 20 0 10 -9 24 -20 30
-48 26 -12 30 265 30 l285 0 0 -36z m873 -704 c21 0 23 -26 1 -34 -9 -3 -36
-6 -60 -6 -36 0 -44 3 -44 18 0 28 11 34 50 28 19 -3 43 -6 53 -6z m-700 -80
c-4 -16 -14 -20 -45 -20 -31 0 -41 -4 -45 -20 -3 -11 -12 -20 -20 -20 -8 0
-17 -9 -20 -20 -9 -34 -28 -22 -28 17 l0 38 -48 3 c-42 3 -49 0 -54 -17 -4
-16 -13 -21 -40 -21 -26 0 -36 -5 -40 -19 -3 -11 -13 -21 -24 -24 -10 -3 -19
-12 -19 -21 0 -9 -8 -16 -20 -16 -21 0 -35 -33 -28 -67 2 -14 14 -19 51 -21
42 -3 49 0 54 17 3 12 12 21 20 21 8 0 17 9 20 20 3 11 12 20 20 20 8 0 17 9
20 19 7 27 73 35 73 9 0 -11 -7 -18 -19 -18 -21 0 -31 -19 -31 -61 0 -20 -5
-29 -16 -29 -9 0 -18 -9 -21 -20 -4 -15 -14 -20 -40 -20 -26 0 -36 -5 -40 -19
-3 -11 -14 -21 -25 -24 -12 -4 -18 -12 -16 -24 2 -13 14 -19 46 -21 37 -3 44
0 49 17 4 16 13 21 36 21 40 0 97 60 97 102 0 19 5 28 16 28 9 0 18 9 21 20 3
11 12 20 20 20 8 0 17 9 20 20 3 10 14 22 24 25 10 4 19 13 19 21 0 8 12 19
26 24 21 9 29 7 40 -7 7 -10 11 -27 8 -38 -6 -26 4 -38 45 -60 20 -10 29 -20
23 -24 -13 -8 -42 -85 -42 -112 0 -11 -7 -19 -15 -19 -8 0 -15 -4 -15 -9 0 -5
-10 -11 -21 -14 -16 -4 -20 -11 -16 -26 4 -17 0 -21 -19 -21 -17 0 -24 -6 -24
-19 0 -17 -12 -19 -120 -26 -108 -6 -148 -4 -202 11 -16 5 -18 -4 -18 -85 l0
-91 -75 0 c-60 0 -75 3 -75 15 0 11 11 15 35 15 22 0 38 6 41 15 4 8 12 15 20
15 39 0 42 103 4 113 -18 5 -20 14 -20 110 0 121 -7 167 -27 174 -17 7 -33
-13 -33 -40 0 -19 -51 -77 -68 -77 -10 0 -22 -33 -22 -62 0 -25 -47 -68 -74
-68 -12 0 -32 -11 -44 -25 -21 -24 -27 -25 -135 -25 -108 0 -116 1 -141 25
-15 14 -36 25 -47 25 -18 0 -79 50 -79 64 0 3 33 6 74 6 l75 0 3 -37 c2 -31 7
-39 26 -41 17 -3 25 2 29 17 3 12 12 21 20 21 8 0 17 9 20 20 4 16 15 20 67
22 l61 3 3 43 c2 30 8 42 19 42 8 0 17 9 20 19 3 11 14 21 25 24 16 5 19 13
16 44 -2 31 -7 39 -26 41 -17 3 -25 -2 -29 -17 -3 -12 -12 -21 -20 -21 -8 0
-17 -9 -20 -20 -3 -11 -11 -20 -19 -20 -17 0 -34 -32 -34 -64 0 -25 -3 -26
-56 -26 -47 0 -57 -3 -61 -20 -3 -11 -12 -20 -19 -20 -22 0 -17 7 31 54 25 25
45 49 45 55 0 6 9 11 20 11 13 0 20 7 20 20 0 13 7 20 20 20 11 0 20 5 20 10
0 6 21 31 46 55 25 25 43 49 39 55 -3 5 -44 10 -92 10 -76 0 -85 -2 -90 -20
-4 -16 -14 -20 -44 -20 -39 0 -39 0 -39 -40 l0 -40 -45 0 -45 0 0 -44 c0 -44
0 -45 -37 -48 -36 -3 -38 -5 -44 -43 -5 -40 -12 -36 -23 18 -4 15 -12 27 -19
27 -24 0 -37 54 -37 152 l0 98 614 0 c609 0 614 0 609 -20z m682 -160 c19 -7
26 -16 23 -32 -6 -44 -123 -46 -134 -2 -3 12 -3 28 1 33 8 14 75 14 110 1z
m-1235 -556 l0 -54 -69 0 c-84 0 -161 10 -161 21 0 5 46 10 103 11 l102 3 3
43 c4 60 22 42 22 -24z m1128 -506 c3 -14 -4 -18 -32 -18 -25 0 -38 -6 -46
-20 -10 -18 -21 -20 -145 -20 -124 0 -135 -2 -145 -20 -9 -17 -21 -20 -80 -20
-78 0 -85 8 -42 48 26 25 32 26 182 30 137 4 157 6 173 24 25 26 130 23 135
-4z m2 -143 l0 -35 -64 0 c-72 0 -96 -6 -96 -25 0 -21 -25 -25 -156 -25 -117
0 -124 1 -124 20 0 19 7 20 100 20 84 0 100 3 109 18 8 14 27 18 106 21 86 3
98 5 102 22 9 32 23 21 23 -16z"/>
<path d="M2329 2201 c-10 -32 -9 -42 6 -65 10 -15 25 -26 34 -24 33 6 19 128
-15 128 -7 0 -18 -17 -25 -39z m42 -44 c-13 -13 -31 1 -31 25 0 21 1 21 20 3
13 -12 17 -22 11 -28z"/>
<path d="M2176 2175 c-19 -20 -21 -65 -3 -65 16 0 47 31 47 47 0 6 -6 16 -14
22 -11 9 -18 8 -30 -4z m24 -19 c0 -2 -7 -9 -15 -16 -13 -11 -14 -10 -9 4 5
14 24 23 24 12z"/>
<path d="M1390 1820 c0 -5 9 -10 20 -10 11 0 20 5 20 10 0 6 -9 10 -20 10 -11
0 -20 -4 -20 -10z"/>
<path d="M1601 1179 c-23 -9 -23 -11 -8 -26 13 -13 23 -14 49 -7 43 13 51 44
11 43 -15 0 -39 -5 -52 -10z"/>
<path d="M1132 1153 c5 -25 28 -28 28 -4 0 12 -6 21 -16 21 -9 0 -14 -7 -12
-17z"/>
<path d="M2024 1129 c-7 -13 35 -51 48 -43 4 3 5 -2 2 -10 -4 -11 0 -16 14
-16 24 0 35 25 22 50 -16 29 -72 42 -86 19z"/>
<path d="M1597 1056 c-9 -24 6 -36 44 -36 40 0 52 17 27 38 -17 13 -66 12 -71
-2z m49 -24 c-22 -5 -30 3 -21 18 5 8 11 7 22 -2 15 -12 14 -13 -1 -16z"/>
<path d="M1090 1020 c0 -5 11 -10 25 -10 14 0 25 5 25 10 0 6 -11 10 -25 10
-14 0 -25 -4 -25 -10z"/>
<path d="M1680 980 c0 -5 9 -10 20 -10 11 0 20 5 20 10 0 6 -9 10 -20 10 -11
0 -20 -4 -20 -10z"/>
<path d="M1080 940 c0 -5 5 -10 11 -10 5 0 7 5 4 10 -3 6 -8 10 -11 10 -2 0
-4 -4 -4 -10z"/>
<path d="M1004 885 c-4 -9 -2 -21 4 -27 16 -16 47 -5 47 17 0 26 -42 34 -51
10z m36 -12 c0 -7 -4 -13 -9 -13 -5 0 -11 6 -14 13 -3 8 1 14 9 14 8 0 14 -6
14 -14z"/>
<path d="M835 800 c-10 -16 4 -30 31 -30 17 0 24 5 24 20 0 15 -7 20 -24 20
-14 0 -28 -4 -31 -10z m45 -4 c0 -2 -7 -7 -16 -10 -8 -3 -12 -2 -9 4 6 10 25
14 25 6z"/>
<path d="M125 730 c-7 -12 30 -50 50 -50 14 0 35 29 35 49 0 14 -77 15 -85 1z
m58 -19 c-4 -17 -8 -18 -24 -8 -19 12 -19 12 3 19 13 3 24 6 25 7 0 1 -1 -8
-4 -18z"/>
<path d="M210 680 c0 -5 9 -10 20 -10 11 0 20 5 20 10 0 6 -9 10 -20 10 -11 0
-20 -4 -20 -10z"/>
<path d="M757 683 c-4 -3 -7 -33 -7 -65 0 -62 16 -82 45 -58 15 13 21 84 9
114 -6 16 -35 22 -47 9z m38 -53 c1 -11 -2 -20 -6 -20 -5 0 -6 -7 -3 -15 4 -8
1 -15 -5 -15 -7 0 -10 18 -9 45 1 46 20 49 23 5z"/>
<path d="M280 640 c0 -6 27 -10 60 -10 33 0 60 4 60 10 0 6 -27 10 -60 10 -33
0 -60 -4 -60 -10z"/>
<path d="M670 640 c0 -5 11 -10 25 -10 14 0 25 5 25 10 0 6 -11 10 -25 10 -14
0 -25 -4 -25 -10z"/>
<path d="M160 619 c0 -14 5 -19 17 -17 26 5 29 38 4 38 -15 0 -21 -6 -21 -21z"/>
<path d="M460 601 c0 -11 67 -17 128 -13 76 6 44 22 -43 22 -47 0 -85 -4 -85
-9z"/>
<path d="M144 575 c-7 -18 3 -35 21 -35 21 0 28 19 15 35 -16 19 -29 19 -36 0z"/>
<path d="M150 495 c0 -17 5 -25 13 -22 6 2 12 12 12 22 0 10 -6 20 -12 23 -8
2 -13 -6 -13 -23z"/>
<path d="M624 1636 c-12 -32 0 -61 29 -64 19 -2 27 1 27 13 0 8 12 20 26 25
39 15 24 35 -29 38 -35 2 -49 -1 -53 -12z"/>
</g>
</svg>
